HIERARCHY
ROOT Hips
{
	OFFSET -3.958830 18.904000 13.208200
	CHANNELS 6 Xposition Yposition Zposition Zrotation Yrotation Xrotation 
	JOINT LHipJoint
	{
		OFFSET 0.000000 0.000000 0.000000
		CHANNELS 3 Zrotation Yrotation Xrotation
		JOINT LeftUpLeg
		{
			OFFSET 1.800000 -1.400000 0.085000
			CHANNELS 3 Zrotation Yrotation Xrotation
			JOINT LeftLeg
			{
				OFFSET 2.215000 -6.000000 0.000000
				CHANNELS 3 Zrotation Yrotation Xrotation
				JOINT LeftFoot
				{
					OFFSET 2.500000 -6.900000 0.000000
					CHANNELS 3 Zrotation Yrotation Xrotation
					JOINT LeftToeBase
					{
						OFFSET 0.200000 -0.500000 1.950000
						CHANNELS 3 Zrotation Yrotation Xrotation
						End Site
						{
							OFFSET 0.000000 0.000000 0.000000
						}
					}
				}
			}
		}
	}
	JOINT RHipJoint
	{
		OFFSET 0.000000 0.000000 0.000000
		CHANNELS 3 Zrotation Yrotation Xrotation
		JOINT RightUpLeg
		{
			OFFSET -1.800000 -1.400000 0.085000
			CHANNELS 3 Zrotation Yrotation Xrotation
			JOINT RightLeg
			{
				OFFSET -2.215000 -6.000000 0.000000
				CHANNELS 3 Zrotation Yrotation Xrotation
				JOINT RightFoot
				{
					OFFSET -2.500000 -6.900000 0.000000
					CHANNELS 3 Zrotation Yrotation Xrotation
					JOINT RightToeBase
					{
						OFFSET -0.200000 -0.500000 1.950000
						CHANNELS 3 Zrotation Yrotation Xrotation
						End Site
						{
							OFFSET 0.000000 0.000000 0.000000
						}
					}
				}
			}
		}
	}
	JOINT LowerBack
	{
		OFFSET 0.000000 0.000000 0.000000
		CHANNELS 3 Zrotation Yrotation Xrotation
		JOINT Spine
		{
			OFFSET -0.087000 1.940000 -0.288900
			CHANNELS 3 Zrotation Yrotation Xrotation
			JOINT Spine1
			{
				OFFSET 0.000000 1.950000 0.060000
				CHANNELS 3 Zrotation Yrotation Xrotation
				JOINT Neck
				{
					OFFSET 0.000000 0.000000 0.000000
					CHANNELS 3 Zrotation Yrotation Xrotation
					JOINT Neck1
					{
						OFFSET 0.000000 1.600000 0.340000
						CHANNELS 3 Zrotation Yrotation Xrotation
						JOINT Head
						{
							OFFSET 0.000000 1.667000 -0.240000
							CHANNELS 3 Zrotation Yrotation Xrotation
							End Site
							{
								OFFSET 0.000000 0.000000 0.000000
							}
						}
					}
				}
				JOINT LeftShoulder
				{
					OFFSET 0.000000 0.000000 0.000000
					CHANNELS 3 Zrotation Yrotation Xrotation
					JOINT LeftArm
					{
						OFFSET 2.700000 1.550000 -0.730000
						CHANNELS 3 Zrotation Yrotation Xrotation
						JOINT LeftForeArm
						{
							OFFSET 5.450000 0.000000 0.000000
							CHANNELS 3 Zrotation Yrotation Xrotation
							JOINT LeftHand
							{
								OFFSET 3.450000 0.000000 0.000000
								CHANNELS 3 Zrotation Yrotation Xrotation
								JOINT LeftHandIndex1
								{
									OFFSET 0.750000 0.000000 0.000000
									CHANNELS 3 Zrotation Yrotation Xrotation
									End Site
									{
										OFFSET 0.000000 0.000000 0.000000
									}
								}
							}
						}
					}
				}
				JOINT RightShoulder
				{
					OFFSET 0.000000 0.000000 0.000000
					CHANNELS 3 Zrotation Yrotation Xrotation
					JOINT RightArm
					{
						OFFSET -2.700000 1.550000 -0.730000
						CHANNELS 3 Zrotation Yrotation Xrotation
						JOINT RightForeArm
						{
							OFFSET -5.450000 0.000000 0.000000
							CHANNELS 3 Zrotation Yrotation Xrotation
							JOINT RightHand
							{
								OFFSET -3.450000 0.000000 0.000000
								CHANNELS 3 Zrotation Yrotation Xrotation
								JOINT RightHandIndex1
								{
									OFFSET -0.750000 0.000000 0.000000
									CHANNELS 3 Zrotation Yrotation Xrotation
									End Site
									{
										OFFSET 0.000000 0.000000 0.000000
									}
								}
							}
						}
					}
				}
			}
		}
	}
}
MOTION
Frames: 6
Frame Time: 0.016667
-0.334590 17.543090 -5.448960 -4.348722 12.343089 -5.502167 -14.106794 11.803460 2.183687 12.691958 -0.222788 -7.682066 0.027709 3.097030 1.760500 -0.362473 3.093280 3.657532 0.523180 0.385530 0.083400 19.333775 -12.513353 2.902843 -6.533466 -0.136663 -4.445709 1.117154 -3.851206 7.015529 -0.346145 -3.939950 3.224052 0.279020 0.173440 -0.061070 -6.815827 3.340346 -7.465408 35.130230 -5.198973 4.666083 -22.597991 -1.390563 25.132012 10.085841 -16.720638 -21.136855 -31.518000 8.361129 37.722345 7.986420 -8.108530 -12.351840 -27.318492 -25.900765 9.043509 -60.160760 -5.057096 -2.724912 11.863743 0.166038 -0.214912 -3.373544 3.253211 0.308110 -0.104820 -0.117270 0.277560 11.248812 43.620796 20.513666 23.081031 44.134584 -30.721687 -69.502773 31.418881 -33.733646 3.038114 -1.952674 -0.087000 0.281150 -0.126020 0.017780 
-0.346530 17.547690 -5.444980 -4.242867 11.736405 -5.628053 -14.072322 11.734474 2.144391 12.854172 -0.216501 -7.224943 -0.021585 3.115535 1.801543 -0.396731 3.157545 3.644346 0.547880 0.411080 0.096020 19.381941 -12.556678 2.894482 -6.579361 -0.169950 -4.366987 1.028308 -3.852812 7.021252 -0.354967 -3.990912 3.196191 0.314940 0.196360 -0.049090 -6.912309 3.493542 -7.466474 35.197712 -5.062083 4.346230 -22.719546 -1.573048 26.160179 10.316689 -16.691567 -21.140816 -31.353395 8.554971 37.171294 7.701080 -7.890400 -12.354620 -27.404257 -27.198048 9.494803 -59.392022 -5.565925 -1.820376 11.037626 2.224890 0.106164 -3.406742 3.262257 0.299160 -0.081340 -0.128080 0.287720 11.154939 44.584049 20.464749 22.863449 44.566281 -33.822478 -74.444837 36.052300 -38.418087 3.218613 -1.931847 -0.096980 0.298600 -0.125610 0.016280 
-0.363300 17.550320 -5.429680 -4.248303 10.590132 -6.020329 -14.029045 11.667868 2.101134 13.472877 -0.151413 -6.235619 -0.270100 3.233048 1.977453 -0.424864 3.289521 3.592778 0.567610 0.435570 0.098590 19.436855 -12.602798 2.893575 -6.536740 -0.253464 -4.039267 0.817030 -3.845438 6.973482 -0.368004 -4.051705 3.156826 0.351210 0.203610 -0.042210 -7.012800 3.629769 -7.481578 35.655507 -4.920165 4.104730 -22.780635 -1.723293 27.554403 10.833541 -16.897192 -21.616150 -32.211104 8.812371 36.943501 7.497820 -8.175030 -12.810460 -28.762265 -29.308549 10.475593 -57.385012 -5.290368 -0.964538 9.393720 3.868192 0.290215 -3.407302 3.267510 0.296040 -0.072850 -0.135880 0.284460 11.941058 46.707231 20.423152 21.933105 43.706222 -39.019379 -83.658009 44.084574 -46.453198 3.524316 -1.843215 -0.103770 0.310860 -0.113550 0.015310 
-0.371910 17.538640 -5.430510 -4.078192 10.028221 -6.290841 -14.038331 11.721447 2.093047 13.652572 -0.165026 -5.741358 -0.050577 3.259259 2.200329 -0.434749 3.360545 3.584970 0.590690 0.459600 0.131970 19.421664 -12.614113 2.861941 -6.689407 -0.242109 -4.066587 0.601655 -3.830326 7.481253 -0.358827 -4.069661 3.148329 0.382710 0.221970 -0.034660 -6.970803 3.582107 -7.396325 35.465535 -5.134607 3.909199 -23.114874 -2.108234 28.218605 11.611978 -16.688544 -21.185806 -31.790229 8.767599 36.145519 6.314350 -7.878600 -12.558990 -30.792914 -30.735611 11.539853 -54.755073 -4.394269 -0.312932 7.605132 5.060521 0.339503 -3.437751 3.229309 0.270240 -0.042540 -0.147180 0.290410 12.389890 48.352536 18.875330 21.724013 42.345660 -38.000599 -95.001508 48.275880 -55.434561 3.292126 -1.400633 -0.109730 0.328470 -0.126520 0.012360 
-0.369460 17.528190 -5.425580 -4.472536 8.397116 -6.586803 -14.070447 11.850560 2.063398 14.429250 -0.120949 -5.548410 0.211726 3.379700 3.181182 -0.461230 3.453955 3.542827 0.619120 0.488530 0.156260 19.373619 -12.593141 2.862180 -6.208472 -0.206078 -4.151000 0.289783 -3.770662 7.854944 -0.356396 -4.045012 3.153258 0.413370 0.225930 -0.017880 -6.814237 3.434564 -7.254432 36.084060 -5.563443 3.925359 -23.771887 -2.438170 28.378029 12.331429 -16.470635 -20.652294 -31.704579 9.317413 34.972323 5.430200 -7.088730 -12.776040 -32.239240 -31.612401 12.466499 -53.401716 -3.498151 -0.010888 8.060006 5.783224 0.422567 -3.468211 3.219988 0.270410 -0.022590 -0.146060 0.294570 12.244258 49.431060 16.886144 21.458493 41.049412 -31.471605 -105.165485 47.792159 -64.377144 2.807953 -0.859852 -0.113130 0.334310 -0.129570 0.001280 
-0.375140 17.523800 -5.422950 -4.612963 6.448256 -7.151577 -14.096277 11.976211 2.036358 15.098383 -0.044232 -4.863796 0.351508 3.553271 4.181419 -0.484314 3.572990 3.486366 0.654130 0.526850 0.203020 19.334466 -12.581166 2.853406 -5.919746 -0.270066 -3.913484 -0.199234 -3.721120 8.259178 -0.369490 -4.032166 3.150145 0.446680 0.205180 -0.015030 -6.675580 3.284217 -7.113024 36.387419 -6.097717 4.373693 -24.703707 -2.624512 28.900244 13.124999 -16.303116 -20.267794 -31.968329 10.102696 34.127004 4.543170 -6.235660 -13.730700 -32.512873 -32.416858 13.231982 -51.748676 -3.315624 0.376677 8.214885 6.434852 0.467121 -3.482421 3.183307 0.289040 -0.023590 -0.127970 0.283860 10.895614 50.378595 14.872989 20.039417 39.294250 -25.092337 -112.594712 45.124320 -71.945818 2.490393 -0.589144 -0.118400 0.349230 -0.136900 -0.019580 
